<?xml version="1.0" encoding="UTF-8"?>
<svg version="1.1" xmlns="http://www.w3.org/2000/svg" width="513" height="461">
<path d="M0 0 C169.29 0 338.58 0 513 0 C513 152.13 513 304.26 513 461 C343.71 461 174.42 461 0 461 C0 308.87 0 156.74 0 0 Z " fill="#050206" transform="translate(0,0)"/>
<path d="M0 0 C65.77937337 0 65.77937337 0 82.37890625 15.24609375 C95.08048139 28.98827986 97.72710939 44.33210805 97.3828125 62.4296875 C96.7889684 74.93459166 91.83635938 89.91818619 83 99 C59.95671132 119.72446718 29.65963032 115 0 115 C0 77.05 0 39.1 0 0 Z " fill="#F9F9F8" transform="translate(255,162)"/>
<path d="M0 0 C9.24 0 18.48 0 28 0 C28.02578125 3.64933594 28.0515625 7.29867187 28.078125 11.05859375 C28.11659433 14.61327659 28.16173904 18.16781679 28.20751953 21.72241211 C28.2356548 24.18295421 28.25690614 26.64358544 28.27099609 29.10424805 C28.29252802 32.65199165 28.33923373 36.19867195 28.390625 39.74609375 C28.39185364 40.8370787 28.39308228 41.92806366 28.39434814 43.05210876 C28.52029694 49.69745127 29.35056076 55.30917892 33 61 C36.70487832 62.85243916 40.95614188 62.4585162 45 62 C48.18677769 60.20743755 49.52655253 58.87587782 51.25 55.6875 C53.12882224 48.95505364 53.19678434 42.19727521 53.31640625 35.25390625 C53.33718735 34.24279282 53.35796844 33.23167938 53.37937927 32.18992615 C53.44442049 28.98084887 53.50354727 25.77169432 53.5625 22.5625 C53.60572848 20.37824743 53.64934411 18.19400248 53.69335938 16.00976562 C53.80077869 10.67325489 53.90018943 5.33668011 54 0 C63.24 0 72.48 0 82 0 C82 28.05 82 56.1 82 85 C73.75 85 65.5 85 57 85 C56.505 80.545 56.505 80.545 56 76 C55.3709375 76.54269531 54.741875 77.08539063 54.09375 77.64453125 C43.95725296 86.11705513 36.10929494 88.21099582 22.93066406 87.24560547 C15.61775053 86.31530817 10.3350167 81.19777263 5.84783936 75.67205811 C-0.25778741 66.84304955 -0.55908224 56.86643552 -0.390625 46.484375 C-0.3831415 45.13389942 -0.37745858 43.7834128 -0.37347412 42.43292236 C-0.35838294 38.92121061 -0.31925052 35.41018712 -0.2746582 31.89874268 C-0.23334284 28.29847687 -0.21516561 24.69809381 -0.1953125 21.09765625 C-0.15486883 14.06450132 -0.07654052 7.03322291 0 0 Z " fill="#FCFBFB" transform="translate(370,192)"/>
<path d="M0 0 C9.24 0 18.48 0 28 0 C28.03738281 3.6609375 28.07476562 7.321875 28.11328125 11.09375 C28.15954497 14.65500731 28.21076116 18.21616155 28.26245117 21.77734375 C28.29562363 24.24472749 28.32367926 26.71218571 28.34643555 29.1796875 C28.38012213 32.73469666 28.43244702 36.28902798 28.48828125 39.84375 C28.49467117 40.93989624 28.5010611 42.03604248 28.50764465 43.16540527 C28.6381309 50.02438091 28.87028839 56.87028839 34 62 C38.9199562 62.68134659 43.49164539 62.72275325 48 60.5625 C53.29216824 53.78190945 53.46008037 45.68853316 53.51171875 37.40234375 C53.52966995 36.32747208 53.54762115 35.2526004 53.56611633 34.14515686 C53.61990532 30.7426434 53.65401436 27.34026768 53.6875 23.9375 C53.72070076 21.6178195 53.75519294 19.29815711 53.79101562 16.97851562 C53.87802293 11.31899402 53.93836187 5.66008102 54 0 C63.24 0 72.48 0 82 0 C82 28.05 82 56.1 82 85 C74.08 85 66.16 85 58 85 C57.34 82.03 56.68 79.06 56 76 C55.14728516 76.70576172 55.14728516 76.70576172 54.27734375 77.42578125 C44.48574093 85.32118052 35.65207973 88.08987953 23 87 C14.48830616 85.0827318 8.35798804 80.19758148 3.65234375 72.9140625 C0.51255483 67.03961871 -0.12727895 61.34845392 -0.11352539 54.71923828 C-0.11344986 53.4984256 -0.11337433 52.27761292 -0.11329651 51.01980591 C-0.10813522 49.71647308 -0.10297394 48.41314026 -0.09765625 47.0703125 C-0.09578901 45.71125338 -0.09436655 44.35219358 -0.09336853 42.99313354 C-0.08956748 39.43231314 -0.07975802 35.87153413 -0.06866455 32.31072998 C-0.05839835 28.67070078 -0.05380483 25.03066464 -0.04882812 21.390625 C-0.03866529 14.26038022 -0.01908752 7.13024881 0 0 Z " fill="#FBFBFA" transform="translate(148,192)"/>
<path d="M0 0 C28.71 0 57.42 0 87 0 C87 8.25 87 16.5 87 25 C77.43 25 67.86 25 58 25 C58 54.7 58 84.4 58 115 C48.43 115 38.86 115 29 115 C29 85.3 29 55.6 29 25 C19.43 25 9.86 25 0 25 C0 16.75 0 8.5 0 0 Z " fill="#FAF9F9" transform="translate(45,162)"/>
<path d="M0 0 C21.44731013 0 21.44731013 0 30.49609375 8.29296875 C37.67729802 16.44410191 37.52247294 26.79676798 37.13623047 37.07177734 C36.52349265 45.74454305 32.53263281 54.11486362 26 59.875 C17.14852014 66.14479824 12.57332491 64 0 64 C0 42.88 0 21.76 0 0 Z " fill="#04050A" transform="translate(285,187)"/>
<path d="M0 0 C-0.25 1.875 -0.25 1.875 -1 4 C-2.9375 5.125 -2.9375 5.125 -5 6 C-5.66 6.66 -6.32 7.32 -7 8 C-7.99 7.67 -8.98 7.34 -10 7 C-8.71372289 5.82739389 -7.42080217 4.6620717 -6.125 3.5 C-5.04605469 2.52546875 -5.04605469 2.52546875 -3.9453125 1.53125 C-2 0 -2 0 0 0 Z " fill="#272527" transform="translate(426,268)"/>
</svg>
